<?xml version="1.0" encoding="utf-8" standalone="no"?>
<!DOCTYPE svg PUBLIC "-//W3C//DTD SVG 1.1//EN"
  "http://www.w3.org/Graphics/SVG/1.1/DTD/svg11.dtd">
<svg xmlns:xlink="http://www.w3.org/1999/xlink" width="460.8pt" height="345.6pt" viewBox="0 0 460.8 345.6" xmlns="http://www.w3.org/2000/svg" version="1.1">
 <metadata>
  <rdf:RDF xmlns:dc="http://purl.org/dc/elements/1.1/" xmlns:cc="http://creativecommons.org/ns#" xmlns:rdf="http://www.w3.org/1999/02/22-rdf-syntax-ns#">
   <cc:Work>
    <dc:type rdf:resource="http://purl.org/dc/dcmitype/StillImage"/>
    <dc:date>2023-02-16T16:19:58.805105</dc:date>
    <dc:format>image/svg+xml</dc:format>
    <dc:creator>
     <cc:Agent>
      <dc:title>Matplotlib v3.6.2, https://matplotlib.org/</dc:title>
     </cc:Agent>
    </dc:creator>
   </cc:Work>
  </rdf:RDF>
 </metadata>
 <defs>
  <style type="text/css">*{stroke-linejoin: round; stroke-linecap: butt}</style>
 </defs>
 <g id="figure_1">
  <g id="patch_1">
   <path d="M 0 345.6 
L 460.8 345.6 
L 460.8 0 
L 0 0 
z
" style="fill: #ffffff"/>
  </g>
  <g id="axes_1">
   <g id="patch_2">
    <path d="M 57.6 307.584 
L 414.72 307.584 
L 414.72 41.472 
L 57.6 41.472 
z
" style="fill: #ffffff"/>
   </g>
   <g id="matplotlib.axis_1">
    <g id="xtick_1">
     <g id="line2d_1">
      <defs>
       <path id="ma8aa48e57b" d="M 0 0 
L 0 3.5 
" style="stroke: #000000; stroke-width: 0.8"/>
      </defs>
      <g>
       <use xlink:href="#ma8aa48e57b" x="73.832727" y="307.584" style="stroke: #000000; stroke-width: 0.8"/>
      </g>
     </g>
     <g id="text_1">
      <!-- 0.0 -->
      <g transform="translate(65.881165 322.182437) scale(0.1 -0.1)">
       <defs>
        <path id="DejaVuSans-30" d="M 2034 4250 
Q 1547 4250 1301 3770 
Q 1056 3291 1056 2328 
Q 1056 1369 1301 889 
Q 1547 409 2034 409 
Q 2525 409 2770 889 
Q 3016 1369 3016 2328 
Q 3016 3291 2770 3770 
Q 2525 4250 2034 4250 
z
M 2034 4750 
Q 2819 4750 3233 4129 
Q 3647 3509 3647 2328 
Q 3647 1150 3233 529 
Q 2819 -91 2034 -91 
Q 1250 -91 836 529 
Q 422 1150 422 2328 
Q 422 3509 836 4129 
Q 1250 4750 2034 4750 
z
" transform="scale(0.015625)"/>
        <path id="DejaVuSans-2e" d="M 684 794 
L 1344 794 
L 1344 0 
L 684 0 
L 684 794 
z
" transform="scale(0.015625)"/>
       </defs>
       <use xlink:href="#DejaVuSans-30"/>
       <use xlink:href="#DejaVuSans-2e" x="63.623047"/>
       <use xlink:href="#DejaVuSans-30" x="95.410156"/>
      </g>
     </g>
    </g>
    <g id="xtick_2">
     <g id="line2d_2">
      <g>
       <use xlink:href="#ma8aa48e57b" x="116.552681" y="307.584" style="stroke: #000000; stroke-width: 0.8"/>
      </g>
     </g>
     <g id="text_2">
      <!-- 2.5 -->
      <g transform="translate(108.601119 322.182437) scale(0.1 -0.1)">
       <defs>
        <path id="DejaVuSans-32" d="M 1228 531 
L 3431 531 
L 3431 0 
L 469 0 
L 469 531 
Q 828 903 1448 1529 
Q 2069 2156 2228 2338 
Q 2531 2678 2651 2914 
Q 2772 3150 2772 3378 
Q 2772 3750 2511 3984 
Q 2250 4219 1831 4219 
Q 1534 4219 1204 4116 
Q 875 4013 500 3803 
L 500 4441 
Q 881 4594 1212 4672 
Q 1544 4750 1819 4750 
Q 2544 4750 2975 4387 
Q 3406 4025 3406 3419 
Q 3406 3131 3298 2873 
Q 3191 2616 2906 2266 
Q 2828 2175 2409 1742 
Q 1991 1309 1228 531 
z
" transform="scale(0.015625)"/>
        <path id="DejaVuSans-35" d="M 691 4666 
L 3169 4666 
L 3169 4134 
L 1269 4134 
L 1269 2991 
Q 1406 3038 1543 3061 
Q 1681 3084 1819 3084 
Q 2600 3084 3056 2656 
Q 3513 2228 3513 1497 
Q 3513 744 3044 326 
Q 2575 -91 1722 -91 
Q 1428 -91 1123 -41 
Q 819 9 494 109 
L 494 744 
Q 775 591 1075 516 
Q 1375 441 1709 441 
Q 2250 441 2565 725 
Q 2881 1009 2881 1497 
Q 2881 1984 2565 2268 
Q 2250 2553 1709 2553 
Q 1456 2553 1204 2497 
Q 953 2441 691 2322 
L 691 4666 
z
" transform="scale(0.015625)"/>
       </defs>
       <use xlink:href="#DejaVuSans-32"/>
       <use xlink:href="#DejaVuSans-2e" x="63.623047"/>
       <use xlink:href="#DejaVuSans-35" x="95.410156"/>
      </g>
     </g>
    </g>
    <g id="xtick_3">
     <g id="line2d_3">
      <g>
       <use xlink:href="#ma8aa48e57b" x="159.272635" y="307.584" style="stroke: #000000; stroke-width: 0.8"/>
      </g>
     </g>
     <g id="text_3">
      <!-- 5.0 -->
      <g transform="translate(151.321073 322.182437) scale(0.1 -0.1)">
       <use xlink:href="#DejaVuSans-35"/>
       <use xlink:href="#DejaVuSans-2e" x="63.623047"/>
       <use xlink:href="#DejaVuSans-30" x="95.410156"/>
      </g>
     </g>
    </g>
    <g id="xtick_4">
     <g id="line2d_4">
      <g>
       <use xlink:href="#ma8aa48e57b" x="201.992589" y="307.584" style="stroke: #000000; stroke-width: 0.8"/>
      </g>
     </g>
     <g id="text_4">
      <!-- 7.5 -->
      <g transform="translate(194.041027 322.182437) scale(0.1 -0.1)">
       <defs>
        <path id="DejaVuSans-37" d="M 525 4666 
L 3525 4666 
L 3525 4397 
L 1831 0 
L 1172 0 
L 2766 4134 
L 525 4134 
L 525 4666 
z
" transform="scale(0.015625)"/>
       </defs>
       <use xlink:href="#DejaVuSans-37"/>
       <use xlink:href="#DejaVuSans-2e" x="63.623047"/>
       <use xlink:href="#DejaVuSans-35" x="95.410156"/>
      </g>
     </g>
    </g>
    <g id="xtick_5">
     <g id="line2d_5">
      <g>
       <use xlink:href="#ma8aa48e57b" x="244.712543" y="307.584" style="stroke: #000000; stroke-width: 0.8"/>
      </g>
     </g>
     <g id="text_5">
      <!-- 10.0 -->
      <g transform="translate(233.579731 322.182437) scale(0.1 -0.1)">
       <defs>
        <path id="DejaVuSans-31" d="M 794 531 
L 1825 531 
L 1825 4091 
L 703 3866 
L 703 4441 
L 1819 4666 
L 2450 4666 
L 2450 531 
L 3481 531 
L 3481 0 
L 794 0 
L 794 531 
z
" transform="scale(0.015625)"/>
       </defs>
       <use xlink:href="#DejaVuSans-31"/>
       <use xlink:href="#DejaVuSans-30" x="63.623047"/>
       <use xlink:href="#DejaVuSans-2e" x="127.246094"/>
       <use xlink:href="#DejaVuSans-30" x="159.033203"/>
      </g>
     </g>
    </g>
    <g id="xtick_6">
     <g id="line2d_6">
      <g>
       <use xlink:href="#ma8aa48e57b" x="287.432497" y="307.584" style="stroke: #000000; stroke-width: 0.8"/>
      </g>
     </g>
     <g id="text_6">
      <!-- 12.5 -->
      <g transform="translate(276.299685 322.182437) scale(0.1 -0.1)">
       <use xlink:href="#DejaVuSans-31"/>
       <use xlink:href="#DejaVuSans-32" x="63.623047"/>
       <use xlink:href="#DejaVuSans-2e" x="127.246094"/>
       <use xlink:href="#DejaVuSans-35" x="159.033203"/>
      </g>
     </g>
    </g>
    <g id="xtick_7">
     <g id="line2d_7">
      <g>
       <use xlink:href="#ma8aa48e57b" x="330.152451" y="307.584" style="stroke: #000000; stroke-width: 0.8"/>
      </g>
     </g>
     <g id="text_7">
      <!-- 15.0 -->
      <g transform="translate(319.019639 322.182437) scale(0.1 -0.1)">
       <use xlink:href="#DejaVuSans-31"/>
       <use xlink:href="#DejaVuSans-35" x="63.623047"/>
       <use xlink:href="#DejaVuSans-2e" x="127.246094"/>
       <use xlink:href="#DejaVuSans-30" x="159.033203"/>
      </g>
     </g>
    </g>
    <g id="xtick_8">
     <g id="line2d_8">
      <g>
       <use xlink:href="#ma8aa48e57b" x="372.872405" y="307.584" style="stroke: #000000; stroke-width: 0.8"/>
      </g>
     </g>
     <g id="text_8">
      <!-- 17.5 -->
      <g transform="translate(361.739593 322.182437) scale(0.1 -0.1)">
       <use xlink:href="#DejaVuSans-31"/>
       <use xlink:href="#DejaVuSans-37" x="63.623047"/>
       <use xlink:href="#DejaVuSans-2e" x="127.246094"/>
       <use xlink:href="#DejaVuSans-35" x="159.033203"/>
      </g>
     </g>
    </g>
    <g id="text_9">
     <!-- Time (ps) -->
     <g transform="translate(212.656875 335.860562) scale(0.1 -0.1)">
      <defs>
       <path id="DejaVuSans-54" d="M -19 4666 
L 3928 4666 
L 3928 4134 
L 2272 4134 
L 2272 0 
L 1638 0 
L 1638 4134 
L -19 4134 
L -19 4666 
z
" transform="scale(0.015625)"/>
       <path id="DejaVuSans-69" d="M 603 3500 
L 1178 3500 
L 1178 0 
L 603 0 
L 603 3500 
z
M 603 4863 
L 1178 4863 
L 1178 4134 
L 603 4134 
L 603 4863 
z
" transform="scale(0.015625)"/>
       <path id="DejaVuSans-6d" d="M 3328 2828 
Q 3544 3216 3844 3400 
Q 4144 3584 4550 3584 
Q 5097 3584 5394 3201 
Q 5691 2819 5691 2113 
L 5691 0 
L 5113 0 
L 5113 2094 
Q 5113 2597 4934 2840 
Q 4756 3084 4391 3084 
Q 3944 3084 3684 2787 
Q 3425 2491 3425 1978 
L 3425 0 
L 2847 0 
L 2847 2094 
Q 2847 2600 2669 2842 
Q 2491 3084 2119 3084 
Q 1678 3084 1418 2786 
Q 1159 2488 1159 1978 
L 1159 0 
L 581 0 
L 581 3500 
L 1159 3500 
L 1159 2956 
Q 1356 3278 1631 3431 
Q 1906 3584 2284 3584 
Q 2666 3584 2933 3390 
Q 3200 3197 3328 2828 
z
" transform="scale(0.015625)"/>
       <path id="DejaVuSans-65" d="M 3597 1894 
L 3597 1613 
L 953 1613 
Q 991 1019 1311 708 
Q 1631 397 2203 397 
Q 2534 397 2845 478 
Q 3156 559 3463 722 
L 3463 178 
Q 3153 47 2828 -22 
Q 2503 -91 2169 -91 
Q 1331 -91 842 396 
Q 353 884 353 1716 
Q 353 2575 817 3079 
Q 1281 3584 2069 3584 
Q 2775 3584 3186 3129 
Q 3597 2675 3597 1894 
z
M 3022 2063 
Q 3016 2534 2758 2815 
Q 2500 3097 2075 3097 
Q 1594 3097 1305 2825 
Q 1016 2553 972 2059 
L 3022 2063 
z
" transform="scale(0.015625)"/>
       <path id="DejaVuSans-20" transform="scale(0.015625)"/>
       <path id="DejaVuSans-28" d="M 1984 4856 
Q 1566 4138 1362 3434 
Q 1159 2731 1159 2009 
Q 1159 1288 1364 580 
Q 1569 -128 1984 -844 
L 1484 -844 
Q 1016 -109 783 600 
Q 550 1309 550 2009 
Q 550 2706 781 3412 
Q 1013 4119 1484 4856 
L 1984 4856 
z
" transform="scale(0.015625)"/>
       <path id="DejaVuSans-70" d="M 1159 525 
L 1159 -1331 
L 581 -1331 
L 581 3500 
L 1159 3500 
L 1159 2969 
Q 1341 3281 1617 3432 
Q 1894 3584 2278 3584 
Q 2916 3584 3314 3078 
Q 3713 2572 3713 1747 
Q 3713 922 3314 415 
Q 2916 -91 2278 -91 
Q 1894 -91 1617 61 
Q 1341 213 1159 525 
z
M 3116 1747 
Q 3116 2381 2855 2742 
Q 2594 3103 2138 3103 
Q 1681 3103 1420 2742 
Q 1159 2381 1159 1747 
Q 1159 1113 1420 752 
Q 1681 391 2138 391 
Q 2594 391 2855 752 
Q 3116 1113 3116 1747 
z
" transform="scale(0.015625)"/>
       <path id="DejaVuSans-73" d="M 2834 3397 
L 2834 2853 
Q 2591 2978 2328 3040 
Q 2066 3103 1784 3103 
Q 1356 3103 1142 2972 
Q 928 2841 928 2578 
Q 928 2378 1081 2264 
Q 1234 2150 1697 2047 
L 1894 2003 
Q 2506 1872 2764 1633 
Q 3022 1394 3022 966 
Q 3022 478 2636 193 
Q 2250 -91 1575 -91 
Q 1294 -91 989 -36 
Q 684 19 347 128 
L 347 722 
Q 666 556 975 473 
Q 1284 391 1588 391 
Q 1994 391 2212 530 
Q 2431 669 2431 922 
Q 2431 1156 2273 1281 
Q 2116 1406 1581 1522 
L 1381 1569 
Q 847 1681 609 1914 
Q 372 2147 372 2553 
Q 372 3047 722 3315 
Q 1072 3584 1716 3584 
Q 2034 3584 2315 3537 
Q 2597 3491 2834 3397 
z
" transform="scale(0.015625)"/>
       <path id="DejaVuSans-29" d="M 513 4856 
L 1013 4856 
Q 1481 4119 1714 3412 
Q 1947 2706 1947 2009 
Q 1947 1309 1714 600 
Q 1481 -109 1013 -844 
L 513 -844 
Q 928 -128 1133 580 
Q 1338 1288 1338 2009 
Q 1338 2731 1133 3434 
Q 928 4138 513 4856 
z
" transform="scale(0.015625)"/>
      </defs>
      <use xlink:href="#DejaVuSans-54"/>
      <use xlink:href="#DejaVuSans-69" x="57.958984"/>
      <use xlink:href="#DejaVuSans-6d" x="85.742188"/>
      <use xlink:href="#DejaVuSans-65" x="183.154297"/>
      <use xlink:href="#DejaVuSans-20" x="244.677734"/>
      <use xlink:href="#DejaVuSans-28" x="276.464844"/>
      <use xlink:href="#DejaVuSans-70" x="315.478516"/>
      <use xlink:href="#DejaVuSans-73" x="378.955078"/>
      <use xlink:href="#DejaVuSans-29" x="431.054688"/>
     </g>
    </g>
   </g>
   <g id="matplotlib.axis_2">
    <g id="ytick_1">
     <g id="line2d_9">
      <defs>
       <path id="m7bb62875fa" d="M 0 0 
L -3.5 0 
" style="stroke: #000000; stroke-width: 0.8"/>
      </defs>
      <g>
       <use xlink:href="#m7bb62875fa" x="57.6" y="297.673842" style="stroke: #000000; stroke-width: 0.8"/>
      </g>
     </g>
     <g id="text_10">
      <!-- 0 -->
      <g transform="translate(44.2375 301.473061) scale(0.1 -0.1)">
       <use xlink:href="#DejaVuSans-30"/>
      </g>
     </g>
    </g>
    <g id="ytick_2">
     <g id="line2d_10">
      <g>
       <use xlink:href="#m7bb62875fa" x="57.6" y="261.243136" style="stroke: #000000; stroke-width: 0.8"/>
      </g>
     </g>
     <g id="text_11">
      <!-- 5000 -->
      <g transform="translate(25.15 265.042355) scale(0.1 -0.1)">
       <use xlink:href="#DejaVuSans-35"/>
       <use xlink:href="#DejaVuSans-30" x="63.623047"/>
       <use xlink:href="#DejaVuSans-30" x="127.246094"/>
       <use xlink:href="#DejaVuSans-30" x="190.869141"/>
      </g>
     </g>
    </g>
    <g id="ytick_3">
     <g id="line2d_11">
      <g>
       <use xlink:href="#m7bb62875fa" x="57.6" y="224.81243" style="stroke: #000000; stroke-width: 0.8"/>
      </g>
     </g>
     <g id="text_12">
      <!-- 10000 -->
      <g transform="translate(18.7875 228.611648) scale(0.1 -0.1)">
       <use xlink:href="#DejaVuSans-31"/>
       <use xlink:href="#DejaVuSans-30" x="63.623047"/>
       <use xlink:href="#DejaVuSans-30" x="127.246094"/>
       <use xlink:href="#DejaVuSans-30" x="190.869141"/>
       <use xlink:href="#DejaVuSans-30" x="254.492188"/>
      </g>
     </g>
    </g>
    <g id="ytick_4">
     <g id="line2d_12">
      <g>
       <use xlink:href="#m7bb62875fa" x="57.6" y="188.381723" style="stroke: #000000; stroke-width: 0.8"/>
      </g>
     </g>
     <g id="text_13">
      <!-- 15000 -->
      <g transform="translate(18.7875 192.180942) scale(0.1 -0.1)">
       <use xlink:href="#DejaVuSans-31"/>
       <use xlink:href="#DejaVuSans-35" x="63.623047"/>
       <use xlink:href="#DejaVuSans-30" x="127.246094"/>
       <use xlink:href="#DejaVuSans-30" x="190.869141"/>
       <use xlink:href="#DejaVuSans-30" x="254.492188"/>
      </g>
     </g>
    </g>
    <g id="ytick_5">
     <g id="line2d_13">
      <g>
       <use xlink:href="#m7bb62875fa" x="57.6" y="151.951017" style="stroke: #000000; stroke-width: 0.8"/>
      </g>
     </g>
     <g id="text_14">
      <!-- 20000 -->
      <g transform="translate(18.7875 155.750236) scale(0.1 -0.1)">
       <use xlink:href="#DejaVuSans-32"/>
       <use xlink:href="#DejaVuSans-30" x="63.623047"/>
       <use xlink:href="#DejaVuSans-30" x="127.246094"/>
       <use xlink:href="#DejaVuSans-30" x="190.869141"/>
       <use xlink:href="#DejaVuSans-30" x="254.492188"/>
      </g>
     </g>
    </g>
    <g id="ytick_6">
     <g id="line2d_14">
      <g>
       <use xlink:href="#m7bb62875fa" x="57.6" y="115.52031" style="stroke: #000000; stroke-width: 0.8"/>
      </g>
     </g>
     <g id="text_15">
      <!-- 25000 -->
      <g transform="translate(18.7875 119.319529) scale(0.1 -0.1)">
       <use xlink:href="#DejaVuSans-32"/>
       <use xlink:href="#DejaVuSans-35" x="63.623047"/>
       <use xlink:href="#DejaVuSans-30" x="127.246094"/>
       <use xlink:href="#DejaVuSans-30" x="190.869141"/>
       <use xlink:href="#DejaVuSans-30" x="254.492188"/>
      </g>
     </g>
    </g>
    <g id="ytick_7">
     <g id="line2d_15">
      <g>
       <use xlink:href="#m7bb62875fa" x="57.6" y="79.089604" style="stroke: #000000; stroke-width: 0.8"/>
      </g>
     </g>
     <g id="text_16">
      <!-- 30000 -->
      <g transform="translate(18.7875 82.888823) scale(0.1 -0.1)">
       <defs>
        <path id="DejaVuSans-33" d="M 2597 2516 
Q 3050 2419 3304 2112 
Q 3559 1806 3559 1356 
Q 3559 666 3084 287 
Q 2609 -91 1734 -91 
Q 1441 -91 1130 -33 
Q 819 25 488 141 
L 488 750 
Q 750 597 1062 519 
Q 1375 441 1716 441 
Q 2309 441 2620 675 
Q 2931 909 2931 1356 
Q 2931 1769 2642 2001 
Q 2353 2234 1838 2234 
L 1294 2234 
L 1294 2753 
L 1863 2753 
Q 2328 2753 2575 2939 
Q 2822 3125 2822 3475 
Q 2822 3834 2567 4026 
Q 2313 4219 1838 4219 
Q 1578 4219 1281 4162 
Q 984 4106 628 3988 
L 628 4550 
Q 988 4650 1302 4700 
Q 1616 4750 1894 4750 
Q 2613 4750 3031 4423 
Q 3450 4097 3450 3541 
Q 3450 3153 3228 2886 
Q 3006 2619 2597 2516 
z
" transform="scale(0.015625)"/>
       </defs>
       <use xlink:href="#DejaVuSans-33"/>
       <use xlink:href="#DejaVuSans-30" x="63.623047"/>
       <use xlink:href="#DejaVuSans-30" x="127.246094"/>
       <use xlink:href="#DejaVuSans-30" x="190.869141"/>
       <use xlink:href="#DejaVuSans-30" x="254.492188"/>
      </g>
     </g>
    </g>
    <g id="ytick_8">
     <g id="line2d_16">
      <g>
       <use xlink:href="#m7bb62875fa" x="57.6" y="42.658898" style="stroke: #000000; stroke-width: 0.8"/>
      </g>
     </g>
     <g id="text_17">
      <!-- 35000 -->
      <g transform="translate(18.7875 46.458116) scale(0.1 -0.1)">
       <use xlink:href="#DejaVuSans-33"/>
       <use xlink:href="#DejaVuSans-35" x="63.623047"/>
       <use xlink:href="#DejaVuSans-30" x="127.246094"/>
       <use xlink:href="#DejaVuSans-30" x="190.869141"/>
       <use xlink:href="#DejaVuSans-30" x="254.492188"/>
      </g>
     </g>
    </g>
    <g id="text_18">
     <!-- Temperature(K) -->
     <g transform="translate(12.707812 213.378) rotate(-90) scale(0.1 -0.1)">
      <defs>
       <path id="DejaVuSans-72" d="M 2631 2963 
Q 2534 3019 2420 3045 
Q 2306 3072 2169 3072 
Q 1681 3072 1420 2755 
Q 1159 2438 1159 1844 
L 1159 0 
L 581 0 
L 581 3500 
L 1159 3500 
L 1159 2956 
Q 1341 3275 1631 3429 
Q 1922 3584 2338 3584 
Q 2397 3584 2469 3576 
Q 2541 3569 2628 3553 
L 2631 2963 
z
" transform="scale(0.015625)"/>
       <path id="DejaVuSans-61" d="M 2194 1759 
Q 1497 1759 1228 1600 
Q 959 1441 959 1056 
Q 959 750 1161 570 
Q 1363 391 1709 391 
Q 2188 391 2477 730 
Q 2766 1069 2766 1631 
L 2766 1759 
L 2194 1759 
z
M 3341 1997 
L 3341 0 
L 2766 0 
L 2766 531 
Q 2569 213 2275 61 
Q 1981 -91 1556 -91 
Q 1019 -91 701 211 
Q 384 513 384 1019 
Q 384 1609 779 1909 
Q 1175 2209 1959 2209 
L 2766 2209 
L 2766 2266 
Q 2766 2663 2505 2880 
Q 2244 3097 1772 3097 
Q 1472 3097 1187 3025 
Q 903 2953 641 2809 
L 641 3341 
Q 956 3463 1253 3523 
Q 1550 3584 1831 3584 
Q 2591 3584 2966 3190 
Q 3341 2797 3341 1997 
z
" transform="scale(0.015625)"/>
       <path id="DejaVuSans-74" d="M 1172 4494 
L 1172 3500 
L 2356 3500 
L 2356 3053 
L 1172 3053 
L 1172 1153 
Q 1172 725 1289 603 
Q 1406 481 1766 481 
L 2356 481 
L 2356 0 
L 1766 0 
Q 1100 0 847 248 
Q 594 497 594 1153 
L 594 3053 
L 172 3053 
L 172 3500 
L 594 3500 
L 594 4494 
L 1172 4494 
z
" transform="scale(0.015625)"/>
       <path id="DejaVuSans-75" d="M 544 1381 
L 544 3500 
L 1119 3500 
L 1119 1403 
Q 1119 906 1312 657 
Q 1506 409 1894 409 
Q 2359 409 2629 706 
Q 2900 1003 2900 1516 
L 2900 3500 
L 3475 3500 
L 3475 0 
L 2900 0 
L 2900 538 
Q 2691 219 2414 64 
Q 2138 -91 1772 -91 
Q 1169 -91 856 284 
Q 544 659 544 1381 
z
M 1991 3584 
L 1991 3584 
z
" transform="scale(0.015625)"/>
       <path id="DejaVuSans-4b" d="M 628 4666 
L 1259 4666 
L 1259 2694 
L 3353 4666 
L 4166 4666 
L 1850 2491 
L 4331 0 
L 3500 0 
L 1259 2247 
L 1259 0 
L 628 0 
L 628 4666 
z
" transform="scale(0.015625)"/>
      </defs>
      <use xlink:href="#DejaVuSans-54"/>
      <use xlink:href="#DejaVuSans-65" x="44.083984"/>
      <use xlink:href="#DejaVuSans-6d" x="105.607422"/>
      <use xlink:href="#DejaVuSans-70" x="203.019531"/>
      <use xlink:href="#DejaVuSans-65" x="266.496094"/>
      <use xlink:href="#DejaVuSans-72" x="328.019531"/>
      <use xlink:href="#DejaVuSans-61" x="369.132812"/>
      <use xlink:href="#DejaVuSans-74" x="430.412109"/>
      <use xlink:href="#DejaVuSans-75" x="469.621094"/>
      <use xlink:href="#DejaVuSans-72" x="533"/>
      <use xlink:href="#DejaVuSans-65" x="571.863281"/>
      <use xlink:href="#DejaVuSans-28" x="633.386719"/>
      <use xlink:href="#DejaVuSans-4b" x="672.400391"/>
      <use xlink:href="#DejaVuSans-29" x="737.976562"/>
     </g>
    </g>
   </g>
   <g id="line2d_17">
    <path d="M 73.832727 295.481959 
L 74.174829 295.405616 
L 74.34588 295.246649 
L 74.516931 294.881894 
L 74.859032 292.985668 
L 75.201134 288.770591 
L 75.543236 281.161047 
L 76.056389 261.681884 
L 76.911643 213.280945 
L 77.595846 180.252251 
L 77.937948 170.679183 
L 78.28005 165.512318 
L 78.622152 163.415852 
L 78.793202 163.072984 
L 78.964253 163.008314 
L 79.306355 163.334127 
L 80.161609 164.877402 
L 84.437881 172.814471 
L 88.543102 179.95724 
L 92.477272 186.373174 
L 96.411442 192.377211 
L 100.345612 197.976114 
L 104.108731 202.958116 
L 107.87185 207.580386 
L 111.634969 211.848856 
L 115.227037 215.599663 
L 118.819105 219.041766 
L 122.411173 222.183936 
L 126.003242 225.036583 
L 129.59531 227.611828 
L 133.187378 229.92347 
L 136.950497 232.079186 
L 140.713616 233.981583 
L 144.647786 235.72163 
L 148.753007 237.291684 
L 153.029279 238.689465 
L 157.647652 239.961015 
L 162.608127 241.091519 
L 168.081755 242.104137 
L 174.239586 243.006977 
L 181.252672 243.800934 
L 189.463113 244.499789 
L 199.555114 245.128462 
L 212.897082 245.723443 
L 232.22583 246.34246 
L 264.896546 247.137746 
L 326.132756 248.380941 
L 398.487273 249.668446 
L 398.487273 249.668446 
" clip-path="url(#pad4282a655)" style="fill: none; stroke-dasharray: 1.5,2.475; stroke-dashoffset: 0; stroke: #000080; stroke-width: 1.5"/>
   </g>
   <g id="line2d_18">
    <path d="M 73.832727 295.488 
L 75.543236 295.394025 
L 76.227439 295.108562 
L 76.740592 294.675325 
L 77.424795 293.78442 
L 78.793202 291.450269 
L 81.872118 286.221805 
L 84.951034 281.446612 
L 88.029949 277.096857 
L 91.108865 273.144104 
L 94.18778 269.561274 
L 97.266696 266.322566 
L 100.345612 263.403386 
L 103.424527 260.780282 
L 106.674494 258.307966 
L 109.92446 256.115611 
L 113.345478 254.084219 
L 116.766495 252.31049 
L 120.358563 250.698345 
L 124.121682 249.255635 
L 128.055852 247.98599 
L 132.332124 246.847784 
L 136.779446 245.894177 
L 141.739921 245.064063 
L 147.213549 244.383284 
L 153.37138 243.851974 
L 160.384466 243.477393 
L 168.765958 243.26094 
L 179.200061 243.223053 
L 193.568334 243.409602 
L 217.344405 243.971299 
L 327.672214 246.770845 
L 397.118866 248.227922 
L 398.487273 248.25461 
L 398.487273 248.25461 
" clip-path="url(#pad4282a655)" style="fill: none; stroke-dasharray: 5.55,2.4; stroke-dashoffset: 0; stroke: #000080; stroke-width: 1.5"/>
   </g>
   <g id="line2d_19">
    <path d="M 73.832727 295.478335 
L 74.174829 295.358664 
L 74.34588 295.114536 
L 74.516931 294.57691 
L 74.859032 292.030206 
L 75.201134 286.592482 
L 75.543236 276.87034 
L 76.056389 252.104478 
L 76.911643 190.678782 
L 77.595846 148.699819 
L 77.937948 136.467803 
L 78.28005 129.793532 
L 78.622152 126.990172 
L 78.964253 126.314771 
L 79.135304 126.373306 
L 79.477406 126.825442 
L 81.016864 129.751922 
L 85.122084 137.383274 
L 89.227305 144.544854 
L 93.332526 151.256847 
L 97.437747 157.53598 
L 101.371917 163.160819 
L 105.306087 168.413379 
L 109.240257 173.305134 
L 113.174427 177.847613 
L 117.108597 182.05271 
L 121.042767 185.932893 
L 124.976936 189.501331 
L 128.911106 192.771952 
L 132.845276 195.759432 
L 136.950497 198.591541 
L 141.055718 201.150172 
L 145.160939 203.453894 
L 149.43721 205.602829 
L 153.884533 207.588826 
L 158.502906 209.407537 
L 163.292331 211.058396 
L 168.423857 212.591931 
L 173.897484 213.993894 
L 179.884265 215.291014 
L 186.384198 216.465527 
L 193.568334 217.532968 
L 201.607725 218.500577 
L 211.015523 219.402051 
L 222.133829 220.236479 
L 235.988949 221.042165 
L 254.120341 221.859435 
L 279.777971 222.77637 
L 319.803874 223.964081 
L 381.382186 225.555761 
L 398.487273 225.966765 
L 398.487273 225.966765 
" clip-path="url(#pad4282a655)" style="fill: none; stroke-dasharray: 1.5,2.475; stroke-dashoffset: 0; stroke: #0080ff; stroke-width: 1.5"/>
   </g>
   <g id="line2d_20">
    <path d="M 73.832727 295.488 
L 75.372185 295.406974 
L 76.056389 295.123578 
L 76.569541 294.657855 
L 77.253745 293.629276 
L 78.28005 291.489265 
L 82.21422 282.913036 
L 85.293135 276.779007 
L 88.372051 271.12857 
L 91.450967 265.93092 
L 94.529882 261.15686 
L 97.608798 256.778695 
L 100.687713 252.770138 
L 103.766629 249.106234 
L 107.016595 245.586533 
L 110.266562 242.398067 
L 113.516528 239.515879 
L 116.937546 236.786982 
L 120.358563 234.345436 
L 123.950631 232.064479 
L 127.542699 230.047171 
L 131.305819 228.189839 
L 135.239989 226.500236 
L 139.345209 224.982605 
L 143.621481 223.637813 
L 148.239854 222.422592 
L 153.20033 221.35473 
L 158.502906 220.444871 
L 164.318636 219.677258 
L 170.818569 219.052454 
L 178.002705 218.589365 
L 186.384198 218.279912 
L 196.305148 218.146844 
L 208.44976 218.215464 
L 224.699592 218.544179 
L 250.01512 219.305275 
L 376.934863 223.368991 
L 398.487273 223.973253 
L 398.487273 223.973253 
" clip-path="url(#pad4282a655)" style="fill: none; stroke-dasharray: 5.55,2.4; stroke-dashoffset: 0; stroke: #0080ff; stroke-width: 1.5"/>
   </g>
   <g id="line2d_21">
    <path d="M 73.832727 295.475918 
L 74.174829 295.326885 
L 74.34588 295.026763 
L 74.516931 294.383232 
L 74.859032 291.471143 
L 75.201134 285.342498 
L 75.543236 274.42928 
L 76.056389 246.684034 
L 76.911643 177.917716 
L 77.595846 130.893453 
L 78.108999 112.728081 
L 78.451101 107.626656 
L 78.793202 105.824948 
L 78.964253 105.606709 
L 79.135304 105.635163 
L 79.477406 106.066058 
L 80.845813 108.673411 
L 84.951034 116.371522 
L 89.056254 123.597811 
L 93.161475 130.375542 
L 97.266696 136.72414 
L 101.371917 142.660614 
L 105.477138 148.20056 
L 109.582358 153.358849 
L 113.687579 158.150098 
L 117.7928 162.588997 
L 121.898021 166.690499 
L 126.003242 170.469943 
L 130.108462 173.943084 
L 134.213683 177.12608 
L 138.318904 180.035425 
L 142.595176 182.793033 
L 146.871447 185.290881 
L 151.31877 187.633475 
L 155.937143 189.813071 
L 160.726568 191.8253 
L 165.687043 193.669125 
L 170.98962 195.398887 
L 176.634298 196.999013 
L 182.621079 198.460265 
L 189.121012 199.812304 
L 196.134097 201.042006 
L 204.002437 202.190546 
L 212.897082 203.25563 
L 222.989083 204.235162 
L 234.962644 205.167377 
L 249.673018 206.07899 
L 268.488614 207.009601 
L 294.146244 208.041538 
L 331.948485 209.321736 
L 387.882119 210.979541 
L 398.487273 211.274056 
L 398.487273 211.274056 
" clip-path="url(#pad4282a655)" style="fill: none; stroke-dasharray: 1.5,2.475; stroke-dashoffset: 0; stroke: #7dff7a; stroke-width: 1.5"/>
   </g>
   <g id="line2d_22">
    <path d="M 73.832727 295.488 
L 75.372185 295.395013 
L 75.885338 295.189688 
L 76.39849 294.759339 
L 76.911643 294.038534 
L 77.595846 292.657939 
L 79.306355 288.406732 
L 82.556321 280.560246 
L 85.635237 273.690556 
L 88.714153 267.335184 
L 91.793068 261.462106 
L 94.871984 256.040994 
L 97.9509 251.043114 
L 101.200866 246.196641 
L 104.450832 241.761046 
L 107.700799 237.70764 
L 110.950765 234.009313 
L 114.200732 230.640456 
L 117.450698 227.576897 
L 120.871716 224.656887 
L 124.292733 222.024921 
L 127.884801 219.545738 
L 131.476869 217.332941 
L 135.239989 215.274785 
L 139.174158 213.380671 
L 143.279379 211.656709 
L 147.555651 210.105815 
L 152.002973 208.727901 
L 156.792398 207.479382 
L 161.923924 206.376938 
L 167.397551 205.430817 
L 173.384332 204.625042 
L 180.055316 203.960119 
L 187.410503 203.456379 
L 195.791995 203.111286 
L 205.541895 202.939656 
L 217.344405 202.965011 
L 232.22583 203.231157 
L 253.094036 203.844696 
L 292.435735 205.269016 
L 366.500761 207.922688 
L 398.487273 208.969058 
L 398.487273 208.969058 
" clip-path="url(#pad4282a655)" style="fill: none; stroke-dasharray: 5.55,2.4; stroke-dashoffset: 0; stroke: #7dff7a; stroke-width: 1.5"/>
   </g>
   <g id="line2d_23">
    <path d="M 73.832727 295.468669 
L 74.003778 295.415982 
L 74.174829 295.232829 
L 74.34588 294.775147 
L 74.687982 292.336152 
L 75.030083 286.742813 
L 75.372185 276.103559 
L 75.714287 258.537545 
L 76.227439 217.540767 
L 77.595846 86.19259 
L 78.108999 63.018997 
L 78.451101 56.41591 
L 78.793202 53.975581 
L 78.964253 53.616264 
L 79.135304 53.568 
L 79.477406 53.943151 
L 80.503711 55.893492 
L 84.608932 63.726547 
L 88.714153 71.085688 
L 92.819374 77.997669 
L 96.924594 84.485626 
L 101.029815 90.570067 
L 105.135036 96.269737 
L 109.240257 101.602207 
L 113.345478 106.584278 
L 117.621749 111.418895 
L 121.898021 115.909013 
L 126.174293 120.07239 
L 130.450564 123.926563 
L 134.726836 127.488862 
L 139.174158 130.902413 
L 143.621481 134.037688 
L 148.239854 137.018877 
L 152.858228 139.740171 
L 157.647652 142.308668 
L 162.608127 144.718823 
L 167.739653 146.967712 
L 173.213281 149.118539 
L 178.85796 151.095862 
L 184.84474 152.955547 
L 191.173622 154.687505 
L 198.015657 156.324744 
L 205.370844 157.851285 
L 213.410235 159.286723 
L 222.133829 160.616616 
L 231.883728 161.876316 
L 243.002035 163.083406 
L 255.83085 164.245942 
L 271.054377 165.393635 
L 289.52787 166.555028 
L 312.961839 167.795943 
L 344.093097 169.20972 
L 386.684763 170.908933 
L 398.487273 171.34927 
L 398.487273 171.34927 
" clip-path="url(#pad4282a655)" style="fill: none; stroke-dasharray: 1.5,2.475; stroke-dashoffset: 0; stroke: #ff9400; stroke-width: 1.5"/>
   </g>
   <g id="line2d_24">
    <path d="M 73.832727 295.488 
L 75.201134 295.409887 
L 75.714287 295.214374 
L 76.227439 294.772624 
L 76.740592 293.981667 
L 77.424795 292.362535 
L 78.622152 288.668238 
L 82.21422 277.448395 
L 85.464186 268.044866 
L 88.714153 259.311797 
L 91.964119 251.207343 
L 95.214086 243.692026 
L 98.464052 236.728578 
L 101.714019 230.281799 
L 104.963985 224.318439 
L 108.213952 218.807091 
L 111.463918 213.718094 
L 114.713884 209.023444 
L 118.134902 204.478706 
L 121.555919 200.312629 
L 124.976936 196.497944 
L 128.397954 193.00905 
L 131.990022 189.670096 
L 135.58209 186.637867 
L 139.174158 183.888106 
L 142.937278 181.285756 
L 146.871447 178.843881 
L 150.805617 176.661841 
L 154.910838 174.636539 
L 159.18711 172.774041 
L 163.634432 171.077773 
L 168.423857 169.496247 
L 173.384332 168.096007 
L 178.686909 166.834373 
L 184.331587 165.72394 
L 190.318368 164.772031 
L 196.818301 163.962426 
L 204.002437 163.29458 
L 211.870777 162.787473 
L 220.765422 162.440056 
L 231.028474 162.269517 
L 243.002035 162.301036 
L 257.541358 162.570365 
L 276.356954 163.153723 
L 304.067194 164.25736 
L 398.487273 168.344806 
L 398.487273 168.344806 
" clip-path="url(#pad4282a655)" style="fill: none; stroke-dasharray: 5.55,2.4; stroke-dashoffset: 0; stroke: #ff9400; stroke-width: 1.5"/>
   </g>
   <g id="patch_3">
    <path d="M 57.6 307.584 
L 57.6 41.472 
" style="fill: none; stroke: #000000; stroke-width: 0.8; stroke-linejoin: miter; stroke-linecap: square"/>
   </g>
   <g id="patch_4">
    <path d="M 414.72 307.584 
L 414.72 41.472 
" style="fill: none; stroke: #000000; stroke-width: 0.8; stroke-linejoin: miter; stroke-linecap: square"/>
   </g>
   <g id="patch_5">
    <path d="M 57.6 307.584 
L 414.72 307.584 
" style="fill: none; stroke: #000000; stroke-width: 0.8; stroke-linejoin: miter; stroke-linecap: square"/>
   </g>
   <g id="patch_6">
    <path d="M 57.6 41.472 
L 414.72 41.472 
" style="fill: none; stroke: #000000; stroke-width: 0.8; stroke-linejoin: miter; stroke-linecap: square"/>
   </g>
   <g id="text_19">
    <!-- Temperature Evolution -->
    <g transform="translate(168.27375 35.472) scale(0.12 -0.12)">
     <defs>
      <path id="DejaVuSans-45" d="M 628 4666 
L 3578 4666 
L 3578 4134 
L 1259 4134 
L 1259 2753 
L 3481 2753 
L 3481 2222 
L 1259 2222 
L 1259 531 
L 3634 531 
L 3634 0 
L 628 0 
L 628 4666 
z
" transform="scale(0.015625)"/>
      <path id="DejaVuSans-76" d="M 191 3500 
L 800 3500 
L 1894 563 
L 2988 3500 
L 3597 3500 
L 2284 0 
L 1503 0 
L 191 3500 
z
" transform="scale(0.015625)"/>
      <path id="DejaVuSans-6f" d="M 1959 3097 
Q 1497 3097 1228 2736 
Q 959 2375 959 1747 
Q 959 1119 1226 758 
Q 1494 397 1959 397 
Q 2419 397 2687 759 
Q 2956 1122 2956 1747 
Q 2956 2369 2687 2733 
Q 2419 3097 1959 3097 
z
M 1959 3584 
Q 2709 3584 3137 3096 
Q 3566 2609 3566 1747 
Q 3566 888 3137 398 
Q 2709 -91 1959 -91 
Q 1206 -91 779 398 
Q 353 888 353 1747 
Q 353 2609 779 3096 
Q 1206 3584 1959 3584 
z
" transform="scale(0.015625)"/>
      <path id="DejaVuSans-6c" d="M 603 4863 
L 1178 4863 
L 1178 0 
L 603 0 
L 603 4863 
z
" transform="scale(0.015625)"/>
      <path id="DejaVuSans-6e" d="M 3513 2113 
L 3513 0 
L 2938 0 
L 2938 2094 
Q 2938 2591 2744 2837 
Q 2550 3084 2163 3084 
Q 1697 3084 1428 2787 
Q 1159 2491 1159 1978 
L 1159 0 
L 581 0 
L 581 3500 
L 1159 3500 
L 1159 2956 
Q 1366 3272 1645 3428 
Q 1925 3584 2291 3584 
Q 2894 3584 3203 3211 
Q 3513 2838 3513 2113 
z
" transform="scale(0.015625)"/>
     </defs>
     <use xlink:href="#DejaVuSans-54"/>
     <use xlink:href="#DejaVuSans-65" x="44.083984"/>
     <use xlink:href="#DejaVuSans-6d" x="105.607422"/>
     <use xlink:href="#DejaVuSans-70" x="203.019531"/>
     <use xlink:href="#DejaVuSans-65" x="266.496094"/>
     <use xlink:href="#DejaVuSans-72" x="328.019531"/>
     <use xlink:href="#DejaVuSans-61" x="369.132812"/>
     <use xlink:href="#DejaVuSans-74" x="430.412109"/>
     <use xlink:href="#DejaVuSans-75" x="469.621094"/>
     <use xlink:href="#DejaVuSans-72" x="533"/>
     <use xlink:href="#DejaVuSans-65" x="571.863281"/>
     <use xlink:href="#DejaVuSans-20" x="633.386719"/>
     <use xlink:href="#DejaVuSans-45" x="665.173828"/>
     <use xlink:href="#DejaVuSans-76" x="728.357422"/>
     <use xlink:href="#DejaVuSans-6f" x="787.537109"/>
     <use xlink:href="#DejaVuSans-6c" x="848.71875"/>
     <use xlink:href="#DejaVuSans-75" x="876.501953"/>
     <use xlink:href="#DejaVuSans-74" x="939.880859"/>
     <use xlink:href="#DejaVuSans-69" x="979.089844"/>
     <use xlink:href="#DejaVuSans-6f" x="1006.873047"/>
     <use xlink:href="#DejaVuSans-6e" x="1068.054688"/>
    </g>
   </g>
   <g id="legend_1">
    <g id="patch_7">
     <path d="M 330.22 114.272 
L 407.72 114.272 
Q 409.72 114.272 409.72 112.272 
L 409.72 48.472 
Q 409.72 46.472 407.72 46.472 
L 330.22 46.472 
Q 328.22 46.472 328.22 48.472 
L 328.22 112.272 
Q 328.22 114.272 330.22 114.272 
z
" style="fill: #ffffff; opacity: 0.8; stroke: #cccccc; stroke-linejoin: miter"/>
    </g>
    <g id="line2d_25">
     <path d="M 332.22 56.072 
L 342.22 56.072 
L 352.22 56.072 
" style="fill: none; stroke-dasharray: 1.5,2.475; stroke-dashoffset: 0; stroke: #000080; stroke-width: 1.5"/>
    </g>
    <g id="text_20">
     <!-- 2.5 J/cm$^2$ -->
     <g transform="translate(360.22 59.572) scale(0.1 -0.1)">
      <defs>
       <path id="DejaVuSans-4a" d="M 628 4666 
L 1259 4666 
L 1259 325 
Q 1259 -519 939 -900 
Q 619 -1281 -91 -1281 
L -331 -1281 
L -331 -750 
L -134 -750 
Q 284 -750 456 -515 
Q 628 -281 628 325 
L 628 4666 
z
" transform="scale(0.015625)"/>
       <path id="DejaVuSans-2f" d="M 1625 4666 
L 2156 4666 
L 531 -594 
L 0 -594 
L 1625 4666 
z
" transform="scale(0.015625)"/>
       <path id="DejaVuSans-63" d="M 3122 3366 
L 3122 2828 
Q 2878 2963 2633 3030 
Q 2388 3097 2138 3097 
Q 1578 3097 1268 2742 
Q 959 2388 959 1747 
Q 959 1106 1268 751 
Q 1578 397 2138 397 
Q 2388 397 2633 464 
Q 2878 531 3122 666 
L 3122 134 
Q 2881 22 2623 -34 
Q 2366 -91 2075 -91 
Q 1284 -91 818 406 
Q 353 903 353 1747 
Q 353 2603 823 3093 
Q 1294 3584 2113 3584 
Q 2378 3584 2631 3529 
Q 2884 3475 3122 3366 
z
" transform="scale(0.015625)"/>
      </defs>
      <use xlink:href="#DejaVuSans-32" transform="translate(0 0.765625)"/>
      <use xlink:href="#DejaVuSans-2e" transform="translate(63.623047 0.765625)"/>
      <use xlink:href="#DejaVuSans-35" transform="translate(95.410156 0.765625)"/>
      <use xlink:href="#DejaVuSans-20" transform="translate(159.033203 0.765625)"/>
      <use xlink:href="#DejaVuSans-4a" transform="translate(190.820312 0.765625)"/>
      <use xlink:href="#DejaVuSans-2f" transform="translate(220.3125 0.765625)"/>
      <use xlink:href="#DejaVuSans-63" transform="translate(254.003906 0.765625)"/>
      <use xlink:href="#DejaVuSans-6d" transform="translate(308.984375 0.765625)"/>
      <use xlink:href="#DejaVuSans-32" transform="translate(407.353516 39.046875) scale(0.7)"/>
     </g>
    </g>
    <g id="line2d_26">
     <path d="M 332.22 72.272 
L 342.22 72.272 
L 352.22 72.272 
" style="fill: none; stroke-dasharray: 1.5,2.475; stroke-dashoffset: 0; stroke: #0080ff; stroke-width: 1.5"/>
    </g>
    <g id="text_21">
     <!-- 4 J/cm$^2$ -->
     <g transform="translate(360.22 75.772) scale(0.1 -0.1)">
      <defs>
       <path id="DejaVuSans-34" d="M 2419 4116 
L 825 1625 
L 2419 1625 
L 2419 4116 
z
M 2253 4666 
L 3047 4666 
L 3047 1625 
L 3713 1625 
L 3713 1100 
L 3047 1100 
L 3047 0 
L 2419 0 
L 2419 1100 
L 313 1100 
L 313 1709 
L 2253 4666 
z
" transform="scale(0.015625)"/>
      </defs>
      <use xlink:href="#DejaVuSans-34" transform="translate(0 0.765625)"/>
      <use xlink:href="#DejaVuSans-20" transform="translate(63.623047 0.765625)"/>
      <use xlink:href="#DejaVuSans-4a" transform="translate(95.410156 0.765625)"/>
      <use xlink:href="#DejaVuSans-2f" transform="translate(124.902344 0.765625)"/>
      <use xlink:href="#DejaVuSans-63" transform="translate(158.59375 0.765625)"/>
      <use xlink:href="#DejaVuSans-6d" transform="translate(213.574219 0.765625)"/>
      <use xlink:href="#DejaVuSans-32" transform="translate(311.943359 39.046875) scale(0.7)"/>
     </g>
    </g>
    <g id="line2d_27">
     <path d="M 332.22 88.472 
L 342.22 88.472 
L 352.22 88.472 
" style="fill: none; stroke-dasharray: 1.5,2.475; stroke-dashoffset: 0; stroke: #7dff7a; stroke-width: 1.5"/>
    </g>
    <g id="text_22">
     <!-- 5 J/cm$^2$ -->
     <g transform="translate(360.22 91.972) scale(0.1 -0.1)">
      <use xlink:href="#DejaVuSans-35" transform="translate(0 0.765625)"/>
      <use xlink:href="#DejaVuSans-20" transform="translate(63.623047 0.765625)"/>
      <use xlink:href="#DejaVuSans-4a" transform="translate(95.410156 0.765625)"/>
      <use xlink:href="#DejaVuSans-2f" transform="translate(124.902344 0.765625)"/>
      <use xlink:href="#DejaVuSans-63" transform="translate(158.59375 0.765625)"/>
      <use xlink:href="#DejaVuSans-6d" transform="translate(213.574219 0.765625)"/>
      <use xlink:href="#DejaVuSans-32" transform="translate(311.943359 39.046875) scale(0.7)"/>
     </g>
    </g>
    <g id="line2d_28">
     <path d="M 332.22 104.672 
L 342.22 104.672 
L 352.22 104.672 
" style="fill: none; stroke-dasharray: 1.5,2.475; stroke-dashoffset: 0; stroke: #ff9400; stroke-width: 1.5"/>
    </g>
    <g id="text_23">
     <!-- 8 J/cm$^2$ -->
     <g transform="translate(360.22 108.172) scale(0.1 -0.1)">
      <defs>
       <path id="DejaVuSans-38" d="M 2034 2216 
Q 1584 2216 1326 1975 
Q 1069 1734 1069 1313 
Q 1069 891 1326 650 
Q 1584 409 2034 409 
Q 2484 409 2743 651 
Q 3003 894 3003 1313 
Q 3003 1734 2745 1975 
Q 2488 2216 2034 2216 
z
M 1403 2484 
Q 997 2584 770 2862 
Q 544 3141 544 3541 
Q 544 4100 942 4425 
Q 1341 4750 2034 4750 
Q 2731 4750 3128 4425 
Q 3525 4100 3525 3541 
Q 3525 3141 3298 2862 
Q 3072 2584 2669 2484 
Q 3125 2378 3379 2068 
Q 3634 1759 3634 1313 
Q 3634 634 3220 271 
Q 2806 -91 2034 -91 
Q 1263 -91 848 271 
Q 434 634 434 1313 
Q 434 1759 690 2068 
Q 947 2378 1403 2484 
z
M 1172 3481 
Q 1172 3119 1398 2916 
Q 1625 2713 2034 2713 
Q 2441 2713 2670 2916 
Q 2900 3119 2900 3481 
Q 2900 3844 2670 4047 
Q 2441 4250 2034 4250 
Q 1625 4250 1398 4047 
Q 1172 3844 1172 3481 
z
" transform="scale(0.015625)"/>
      </defs>
      <use xlink:href="#DejaVuSans-38" transform="translate(0 0.765625)"/>
      <use xlink:href="#DejaVuSans-20" transform="translate(63.623047 0.765625)"/>
      <use xlink:href="#DejaVuSans-4a" transform="translate(95.410156 0.765625)"/>
      <use xlink:href="#DejaVuSans-2f" transform="translate(124.902344 0.765625)"/>
      <use xlink:href="#DejaVuSans-63" transform="translate(158.59375 0.765625)"/>
      <use xlink:href="#DejaVuSans-6d" transform="translate(213.574219 0.765625)"/>
      <use xlink:href="#DejaVuSans-32" transform="translate(311.943359 39.046875) scale(0.7)"/>
     </g>
    </g>
   </g>
  </g>
 </g>
 <defs>
  <clipPath id="pad4282a655">
   <rect x="57.6" y="41.472" width="357.12" height="266.112"/>
  </clipPath>
 </defs>
</svg>
